<svg xmlns="http://www.w3.org/2000/svg" viewBox="0 0 850 850"><defs><style>.cls-1{fill:#fa152d;}.cls-2{fill:#fff;}</style></defs><title>logo_ig_cursinho</title><g id="Graphic_Elements" data-name="Graphic Elements"><circle class="cls-1" cx="425" cy="425" r="425"/><path class="cls-2" d="M600,368.61c71.45,0,79.91.27,108.13,1.56,26.09,1.19,40.26,5.55,49.69,9.21a88.59,88.59,0,0,1,50.78,50.79c3.67,9.43,8,23.6,9.22,49.69,1.28,28.22,1.56,36.68,1.56,108.13s-.28,79.91-1.56,108.13c-1.19,26.09-5.55,40.26-9.22,49.69a88.53,88.53,0,0,1-50.78,50.78c-9.43,3.67-23.6,8-49.69,9.22-28.21,1.28-36.67,1.56-108.13,1.56s-79.92-.28-108.13-1.56c-26.09-1.19-40.26-5.55-49.69-9.22a88.53,88.53,0,0,1-50.78-50.78c-3.67-9.43-8-23.6-9.22-49.69-1.28-28.22-1.56-36.68-1.56-108.13s.28-79.91,1.56-108.13c1.19-26.09,5.55-40.26,9.22-49.69a88.59,88.59,0,0,1,50.78-50.79c9.43-3.66,23.6-8,49.69-9.21,28.22-1.29,36.68-1.56,108.13-1.56m0-48.21c-72.67,0-81.79.3-110.33,1.61s-47.93,5.82-64.95,12.43a136.84,136.84,0,0,0-78.26,78.26c-6.62,17-11.14,36.48-12.44,65s-1.61,37.65-1.61,110.33.31,81.78,1.61,110.33,5.82,47.93,12.44,64.95a136.77,136.77,0,0,0,78.26,78.26c17,6.62,36.47,11.14,64.95,12.44s37.66,1.61,110.33,1.61,81.79-.31,110.33-1.61,47.93-5.82,64.95-12.44a136.77,136.77,0,0,0,78.26-78.26c6.62-17,11.14-36.47,12.44-64.95s1.61-37.66,1.61-110.33-.31-81.79-1.61-110.33-5.82-47.93-12.44-65a136.84,136.84,0,0,0-78.26-78.26c-17-6.61-36.47-11.13-64.95-12.43S672.67,320.4,600,320.4Z" transform="translate(-175 -175)"/><path class="cls-2" d="M600,450.58A137.41,137.41,0,1,0,737.41,588,137.41,137.41,0,0,0,600,450.58Zm0,226.61A89.2,89.2,0,1,1,689.2,588,89.2,89.2,0,0,1,600,677.19Z" transform="translate(-175 -175)"/><circle class="cls-2" cx="742.84" cy="445.15" r="32.11" transform="translate(-272.19 480.65) rotate(-45)"/></g></svg>